<mxfile host="app.diagrams.net" agent="Mozilla/5.0 (Macintosh; Intel Mac OS X 10_15_7) AppleWebKit/605.1.15 (KHTML, like Gecko) Version/18.0.1 Safari/605.1.15" version="24.8.0">
  <diagram name="Page-1" id="13-ynUv5Vi8niWrXXFms">
    <mxGraphModel dx="1570" dy="1061" grid="1" gridSize="10" guides="1" tooltips="1" connect="1" arrows="1" fold="1" page="1" pageScale="1" pageWidth="1169" pageHeight="827" math="0" shadow="0">
      <root>
        <mxCell id="0" />
        <mxCell id="1" parent="0" />
        <mxCell id="L4TfTG_HE_Cz_6SOouko-1" value="&lt;b&gt;Region&lt;/b&gt;&amp;nbsp;- Asia Pacific (Mumbai)" style="points=[[0,0],[0.25,0],[0.5,0],[0.75,0],[1,0],[1,0.25],[1,0.5],[1,0.75],[1,1],[0.75,1],[0.5,1],[0.25,1],[0,1],[0,0.75],[0,0.5],[0,0.25]];outlineConnect=0;gradientColor=none;html=1;whiteSpace=wrap;fontSize=12;fontStyle=0;container=1;pointerEvents=0;collapsible=0;recursiveResize=0;shape=mxgraph.aws4.group;grIcon=mxgraph.aws4.group_region;strokeColor=#00A4A6;fillColor=none;verticalAlign=top;align=left;spacingLeft=30;fontColor=#147EBA;" parent="1" vertex="1">
          <mxGeometry x="80" y="80" width="1040" height="680" as="geometry" />
        </mxCell>
        <mxCell id="L4TfTG_HE_Cz_6SOouko-4" value="AWS Cloud" style="points=[[0,0],[0.25,0],[0.5,0],[0.75,0],[1,0],[1,0.25],[1,0.5],[1,0.75],[1,1],[0.75,1],[0.5,1],[0.25,1],[0,1],[0,0.75],[0,0.5],[0,0.25]];outlineConnect=0;gradientColor=none;html=1;whiteSpace=wrap;fontSize=12;fontStyle=0;container=1;pointerEvents=0;collapsible=0;recursiveResize=0;shape=mxgraph.aws4.group;grIcon=mxgraph.aws4.group_aws_cloud_alt;strokeColor=#232F3E;fillColor=none;verticalAlign=top;align=left;spacingLeft=30;fontColor=#232F3E;dashed=0;" parent="1" vertex="1">
          <mxGeometry x="40" y="40" width="1120" height="760" as="geometry" />
        </mxCell>
        <mxCell id="L4TfTG_HE_Cz_6SOouko-7" value="&lt;b&gt;VPC&lt;/b&gt; -&amp;nbsp;mohamed-resume-app-vpc" style="points=[[0,0],[0.25,0],[0.5,0],[0.75,0],[1,0],[1,0.25],[1,0.5],[1,0.75],[1,1],[0.75,1],[0.5,1],[0.25,1],[0,1],[0,0.75],[0,0.5],[0,0.25]];outlineConnect=0;gradientColor=none;html=1;whiteSpace=wrap;fontSize=12;fontStyle=0;container=1;pointerEvents=0;collapsible=0;recursiveResize=0;shape=mxgraph.aws4.group;grIcon=mxgraph.aws4.group_vpc2;strokeColor=#8C4FFF;fillColor=none;verticalAlign=top;align=left;spacingLeft=30;fontColor=#AAB7B8;dashed=0;" parent="1" vertex="1">
          <mxGeometry x="120" y="120" width="960" height="600" as="geometry" />
        </mxCell>
        <mxCell id="L4TfTG_HE_Cz_6SOouko-2" value="&lt;b&gt;Availability Zone&lt;/b&gt; -&amp;nbsp;ap-south-1a" style="fillColor=none;strokeColor=#147EBA;dashed=1;verticalAlign=top;fontStyle=0;fontColor=#147EBA;whiteSpace=wrap;html=1;" parent="L4TfTG_HE_Cz_6SOouko-7" vertex="1">
          <mxGeometry x="40" y="40" width="400" height="480" as="geometry" />
        </mxCell>
        <mxCell id="L4TfTG_HE_Cz_6SOouko-5" value="&lt;b&gt;Availability Zone&lt;/b&gt; -&amp;nbsp;ap-south-1b" style="fillColor=none;strokeColor=#147EBA;dashed=1;verticalAlign=top;fontStyle=0;fontColor=#147EBA;whiteSpace=wrap;html=1;" parent="L4TfTG_HE_Cz_6SOouko-7" vertex="1">
          <mxGeometry x="600" y="40" width="320" height="480" as="geometry" />
        </mxCell>
        <mxCell id="2Y4jXMCBEfJ4xLDZcFPG-1" value="Public subnet -&amp;nbsp;&lt;span style=&quot;white-space: nowrap; caret-color: rgb(22, 25, 31); color: rgb(22, 25, 31); font-family: &amp;quot;Amazon Ember&amp;quot;, &amp;quot;Helvetica Neue&amp;quot;, Roboto, Arial, sans-serif; font-size: 14px; background-color: rgb(241, 250, 255);&quot;&gt;mohamed-resume-app-subnet&lt;/span&gt;" style="points=[[0,0],[0.25,0],[0.5,0],[0.75,0],[1,0],[1,0.25],[1,0.5],[1,0.75],[1,1],[0.75,1],[0.5,1],[0.25,1],[0,1],[0,0.75],[0,0.5],[0,0.25]];outlineConnect=0;gradientColor=none;html=1;whiteSpace=wrap;fontSize=12;fontStyle=0;container=1;pointerEvents=0;collapsible=0;recursiveResize=0;shape=mxgraph.aws4.group;grIcon=mxgraph.aws4.group_security_group;grStroke=0;strokeColor=#7AA116;fillColor=#F2F6E8;verticalAlign=top;align=left;spacingLeft=30;fontColor=#248814;dashed=0;" vertex="1" parent="L4TfTG_HE_Cz_6SOouko-7">
          <mxGeometry x="80" y="120" width="320" height="360" as="geometry" />
        </mxCell>
        <mxCell id="2Y4jXMCBEfJ4xLDZcFPG-4" value="mohamed-resume-app-ec2" style="text;html=1;align=center;verticalAlign=middle;whiteSpace=wrap;rounded=0;" vertex="1" parent="2Y4jXMCBEfJ4xLDZcFPG-1">
          <mxGeometry x="70" y="230" width="180" height="30" as="geometry" />
        </mxCell>
        <mxCell id="2Y4jXMCBEfJ4xLDZcFPG-3" value="" style="sketch=0;points=[[0,0,0],[0.25,0,0],[0.5,0,0],[0.75,0,0],[1,0,0],[0,1,0],[0.25,1,0],[0.5,1,0],[0.75,1,0],[1,1,0],[0,0.25,0],[0,0.5,0],[0,0.75,0],[1,0.25,0],[1,0.5,0],[1,0.75,0]];outlineConnect=0;fontColor=#232F3E;fillColor=#ED7100;strokeColor=#ffffff;dashed=0;verticalLabelPosition=bottom;verticalAlign=top;align=center;html=1;fontSize=12;fontStyle=0;aspect=fixed;shape=mxgraph.aws4.resourceIcon;resIcon=mxgraph.aws4.ec2;" vertex="1" parent="L4TfTG_HE_Cz_6SOouko-7">
          <mxGeometry x="175.5" y="215.5" width="129" height="129" as="geometry" />
        </mxCell>
      </root>
    </mxGraphModel>
  </diagram>
</mxfile>
